<?xml version="1.0" encoding="UTF-8"?>
<mxfile host="app.diagrams.net" modified="2024-03-21T15:00:00.000Z" agent="Mozilla/5.0" version="21.1.9" etag="your-etag" type="device">
  <diagram name="State Diagram" id="state-diagram">
    <mxGraphModel dx="1222" dy="798" grid="1" gridSize="10" guides="1" tooltips="1" connect="1" arrows="1" fold="1" page="1" pageScale="1" pageWidth="827" pageHeight="1169" math="0" shadow="0">
      <root>
        <mxCell id="0" />
        <mxCell id="1" parent="0" />
        
        <!-- States -->
        <mxCell id="state1" value="New" style="ellipse;whiteSpace=wrap;html=1;" vertex="1" parent="1">
          <mxGeometry x="40" y="40" width="120" height="60" as="geometry" />
        </mxCell>
        
        <mxCell id="state2" value="Active" style="ellipse;whiteSpace=wrap;html=1;" vertex="1" parent="1">
          <mxGeometry x="240" y="40" width="120" height="60" as="geometry" />
        </mxCell>
        
        <mxCell id="state3" value="Low Stock" style="ellipse;whiteSpace=wrap;html=1;" vertex="1" parent="1">
          <mxGeometry x="440" y="40" width="120" height="60" as="geometry" />
        </mxCell>
        
        <mxCell id="state4" value="Out of Stock" style="ellipse;whiteSpace=wrap;html=1;" vertex="1" parent="1">
          <mxGeometry x="640" y="40" width="120" height="60" as="geometry" />
        </mxCell>
        
        <mxCell id="state5" value="Discontinued" style="ellipse;whiteSpace=wrap;html=1;" vertex="1" parent="1">
          <mxGeometry x="240" y="160" width="120" height="60" as="geometry" />
        </mxCell>
        
        <!-- Start State -->
        <mxCell id="start" value="" style="ellipse;whiteSpace=wrap;html=1;fillColor=#000000;" vertex="1" parent="1">
          <mxGeometry x="20" y="50" width="20" height="20" as="geometry" />
        </mxCell>
        
        <!-- End State -->
        <mxCell id="end" value="" style="ellipse;whiteSpace=wrap;html=1;fillColor=#000000;" vertex="1" parent="1">
          <mxGeometry x="760" y="160" width="20" height="20" as="geometry" />
        </mxCell>

        <!-- Transitions -->
        <mxCell id="trans1" value="Added to inventory" style="endArrow=classic;html=1;rounded=0;exitX=1;exitY=0.5;entryX=0;entryY=0.5;" edge="1" parent="1" source="state1" target="state2" />
        
        <mxCell id="trans2" value="Stock below minimum" style="endArrow=classic;html=1;rounded=0;exitX=1;exitY=0.5;entryX=0;entryY=0.5;" edge="1" parent="1" source="state2" target="state3" />
        
        <mxCell id="trans3" value="Stock replenished" style="endArrow=classic;html=1;rounded=0;exitX=1;exitY=0.5;entryX=0;entryY=0.5;" edge="1" parent="1" source="state3" target="state2" />
        
        <mxCell id="trans4" value="Stock depleted" style="endArrow=classic;html=1;rounded=0;exitX=1;exitY=0.5;entryX=0;entryY=0.5;" edge="1" parent="1" source="state2" target="state4" />
        
        <mxCell id="trans5" value="Stock replenished" style="endArrow=classic;html=1;rounded=0;exitX=1;exitY=0.5;entryX=0;entryY=0.5;" edge="1" parent="1" source="state4" target="state2" />
        
        <mxCell id="trans6" value="Marked as discontinued" style="endArrow=classic;html=1;rounded=0;exitX=1;exitY=0.5;entryX=0;entryY=0.5;" edge="1" parent="1" source="state2" target="state5" />
        
        <!-- Start to New -->
        <mxCell id="trans_start" value="" style="endArrow=classic;html=1;rounded=0;exitX=1;exitY=0.5;entryX=0;entryY=0.5;" edge="1" parent="1" source="start" target="state1" />
        
        <!-- Discontinued to End -->
        <mxCell id="trans_end" value="" style="endArrow=classic;html=1;rounded=0;exitX=1;exitY=0.5;entryX=0;entryY=0.5;" edge="1" parent="1" source="state5" target="end" />
      </root>
    </mxGraphModel>
  </diagram>
</mxfile> 